# xmcd
#
# Track frame offsets:
#	150
#	31612
#	57185
#	81335
#	107747
#	128555
#	157605
#	187257
#	209025
#	237977
#	265190
#	289957
#
# Disc length: 4102 seconds
#
# Revision: 2
# Processed by: cddbd v1.5.2PL0 Copyright (c) Steve Scherf et al.
# Submitted via: EZCDAudioConverter 8.0.2.1
#
DISCID=a610040c
DTITLE=Hoàng Oanh - Sao Chưa Thấy Hồi Âm?
DYEAR=1997
DGENRE=Country
TTITLE0=Sao Chưa Thấy Hồi Âm?
TTITLE1=Hãy trả lời em
TTITLE2=Trước giờ tạm biệt
TTITLE3=Con đường mang tên em
TTITLE4=Tình hậu phương
TTITLE5=Ngày sau sẽ ra sao
TTITLE6=Bài thơ cuối cùng
TTITLE7=Trộm nhìn nhau
TTITLE8=Tám điệp khúc
TTITLE9=Kỷ niệm nào buồn
TTITLE10=Lá thư mieenf Trung
TTITLE11=Kiếp nghèo
EXTD=
EXTT0=
EXTT1=
EXTT2=
EXTT3=
EXTT4=
EXTT5=
EXTT6=
EXTT7=
EXTT8=
EXTT9=
EXTT10=
EXTT11=
PLAYORDER=
